<?xml version="1.0" encoding="UTF-8"?>
<svg xmlns="http://www.w3.org/2000/svg" width="512" height="512" viewBox="0 0 512 512">
  <title>Cyberpunk Brewery</title>
  <defs>
    <!-- Background gradient -->
    <linearGradient id="sky" x1="0" y1="0" x2="0" y2="1">
      <stop offset="0%" stop-color="#0f0f23"/>
      <stop offset="60%" stop-color="#1a1a3a"/>
      <stop offset="100%" stop-color="#2d1b69"/>
    </linearGradient>
    <linearGradient id="flute" x1="0" y1="0" x2="0" y2="1">
      <stop offset="0%" stop-color="#ff006e"/>
      <stop offset="50%" stop-color="#8338ec"/>
      <stop offset="100%" stop-color="#3a86ff"/>
    </linearGradient>
    <linearGradient id="snifter" x1="0" y1="0" x2="0" y2="1">
      <stop offset="0%" stop-color="#ffbe0b"/>
      <stop offset="60%" stop-color="#fb5607"/>
      <stop offset="100%" stop-color="#ff006e"/>
    </linearGradient>
    <linearGradient id="martini" x1="0" y1="0" x2="0" y2="1">
      <stop offset="0%" stop-color="#06ffa5"/>
      <stop offset="50%" stop-color="#00d4aa"/>
      <stop offset="100%" stop-color="#4ecdc4"/>
    </linearGradient>
    <linearGradient id="highball" x1="0" y1="0" x2="0" y2="1">
      <stop offset="0%" stop-color="#7209b7"/>
      <stop offset="50%" stop-color="#560bad"/>
      <stop offset="100%" stop-color="#480ca8"/>
    </linearGradient>
    <filter id="glow" x="-40%" y="-40%" width="180%" height="180%">
      <feGaussianBlur stdDeviation="3" result="b"/>
      <feMerge>
        <feMergeNode in="b"/>
        <feMergeNode in="SourceGraphic"/>
      </feMerge>
    </filter>
  </defs>

  <!-- Background -->
  <rect width="512" height="512" fill="url(#sky)" rx="64"/>

  <!-- Ground plane -->
  <rect x="0" y="410" width="512" height="102" fill="#1a1a2e"/>

  <!-- Grid lines (perspective-ish) -->
  <g stroke="#00ffff" stroke-width="2" opacity="0.6">
    <path d="M120,410 L80,512"/>
    <path d="M200,410 L160,512"/>
    <path d="M280,410 L240,512"/>
    <path d="M360,410 L320,512"/>
    <path d="M440,410 L400,512"/>
  </g>

  <!-- Beer glass skyscrapers -->
  <!-- Champagne flute -->
  <g filter="url(#glow)">
    <rect x="60" y="90" width="40" height="320" fill="url(#flute)" rx="8"/>
    <ellipse cx="80" cy="90" rx="30" ry="18" fill="url(#flute)"/>

    <!-- Snifter -->
    <path d="M140,200 C120,240 140,280 140,300 L140,340 L210,340 L210,300 C210,280 230,240 210,200 Z" fill="url(#snifter)"/>
    <rect x="173" y="340" width="14" height="24" fill="#ff7a4a" opacity="0.85"/>

    <!-- Martini -->
    <path d="M280,130 L250,230 L310,230 Z" fill="url(#martini)"/>
    <rect x="287" y="230" width="10" height="120" fill="#4ecdc4" opacity="0.9"/>

    <!-- Highball -->
    <rect x="360" y="180" width="60" height="230" fill="url(#highball)" rx="8"/>
  </g>

  <!-- Neon window lines -->
  <g stroke="#00ffff" stroke-width="4" opacity="0.85">
    <line x1="60" y1="160" x2="100" y2="160"/>
    <line x1="60" y1="210" x2="100" y2="210"/>
  </g>
  <g stroke="#ff00ff" stroke-width="4" opacity="0.85">
    <line x1="360" y1="220" x2="420" y2="220"/>
    <line x1="360" y1="270" x2="420" y2="270"/>
  </g>

  <!-- Floating data points -->
  <g fill="#00ffff">
    <circle cx="160" cy="120" r="5"/>
  </g>
  <g fill="#ff00ff">
    <circle cx="360" cy="90" r="4"/>
  </g>
</svg>

